<svg xmlns="http://www.w3.org/2000/svg" version="1.1" xmlns:xlink="http://www.w3.org/1999/xlink" width="168" height="140">
  <rect width="168" height="140" fill="none"></rect>
  <path xmlns="http://www.w3.org/2000/svg" data-name="text" fill="#353b48" d="M3.25 8.09L3.25 8.09L3.25-2.85Q3.25-5.94 2.20-7.59L2.20-7.59Q3.85-8.99 6.02-8.99Q8.19-8.99 8.99-7.97Q9.79-6.94 9.79-4.90L9.79-4.90L9.79 6.74Q9.79 8.89 10.34 9.82Q10.89 10.74 12.39 10.74L12.39 10.74Q15.03 10.74 17.33 8.44L17.33 8.44L17.33-8.59Q18.43-8.84 20.55-8.84Q22.68-8.84 23.88-8.59L23.88-8.59L23.88 9.14Q23.88 12.09 25.27 13.29L25.27 13.29Q25.02 14.19 24.40 15.13Q23.78 16.08 23.08 16.58L23.08 16.58Q19.43 16.23 18.03 13.04L18.03 13.04Q14.19 16.63 10.09 16.63L10.09 16.63Q6.74 16.63 5.00 14.29Q3.25 11.94 3.25 8.09ZM51.40-0.50L51.40-0.50L51.40 10.39Q51.40 13.59 52.45 15.13L52.45 15.13Q50.85 16.53 48.60 16.53L48.60 16.53Q46.45 16.53 45.65 15.56Q44.86 14.59 44.86 12.49L44.86 12.49L44.86 0.85Q44.86-1.40 44.31-2.30Q43.76-3.20 42.26-3.20L42.26-3.20Q39.61-3.20 37.31-0.80L37.31-0.80L37.31 16.18Q36.56 16.33 35.74 16.38Q34.92 16.43 34.07 16.43L34.07 16.43Q33.22 16.43 32.39 16.38Q31.57 16.33 30.82 16.18L30.82 16.18L30.82-8.54L31.12-8.89L33.62-8.89Q36.41-8.89 37.11-5.89L37.11-5.89Q40.76-9.04 44.36-9.04L44.36-9.04Q47.95-9.04 49.68-6.72Q51.40-4.40 51.40-0.50ZM65.53-3.55L65.53-3.55L65.53 16.18Q64.79 16.33 63.96 16.38Q63.14 16.43 62.29 16.43L62.29 16.43Q61.44 16.43 60.61 16.38Q59.79 16.33 58.99 16.18L58.99 16.18L58.99-1.20Q58.99-3.95 56.74-3.95L56.74-3.95L56.09-3.95Q55.79-5.04 55.79-6.24L55.79-6.24Q55.79-7.34 56.09-8.54L56.09-8.54Q57.24-8.64 58.22-8.72Q59.19-8.79 59.89-8.79L59.89-8.79L60.74-8.79Q62.99-8.79 64.26-7.39Q65.53-5.99 65.53-3.55ZM57.99-18.23L57.99-18.23Q59.14-18.88 61.29-18.88L61.29-18.88Q62.54-18.88 63.31-18.68Q64.09-18.48 64.44-18.21Q64.79-17.93 64.89-17.18Q64.98-16.43 64.98-15.63L64.98-15.63Q64.84-13.09 64.36-12.84Q63.89-12.59 61.24-12.34L61.24-12.34Q58.44-12.44 57.97-13.09Q57.49-13.74 57.49-15.63L57.49-15.63Q57.49-17.08 57.99-18.23Z" transform="translate(10, 35)" vector-effect="non-scaling-stroke" shape-rendering="auto"></path>
  <g data-name="singleChord" transform="translate(-50, -244.5)">
      <g data-name="singleChordBody" transform="translate(0, 0)">
          <g data-name="noteBody" transform="translate(0, 0)">
              <ellipse rx="12.95" ry="7.4" stroke="#353b48" stroke-width="2.5900000000000003" stroke-linejoin="round" stroke-linecap="round" fill="#353b48" cx="120.24999999999999" cy="314.5" transform="rotate(-25, 120.24999999999999, 314.5)" vector-effect="non-scaling-stroke" shape-rendering="auto"></ellipse>
          </g>
      </g>
      <line data-name="stem" x1="132.02620392565143" y1="249.32615953785958" x2="132.02620392565143" y2="310.9463404621404" stroke="#353b48" stroke-width="3.33" stroke-linejoin="round" stroke-linecap="round" transform="translate(0, 0)" vector-effect="non-scaling-stroke" shape-rendering="auto"></line>
      <g data-name="noteWave" transform="translate(0, 0)">
          <path d="M 12.58 52.725 C 16.28 43.475 27.38 28.675 8.879999999999999 13.875 C 8.879999999999999 13.875 -0.37 6.475 -0.37 -0.925 L -0.37 13.875 C -0.37 13.875 8.879999999999999 14.8 14.855500000000001 21.275 C 15.54 22.2 20.165000000000003 28.675 19.240000000000002 34.225" stroke="#353b48" stroke-width="2.6824999999999997" stroke-linejoin="round" stroke-linecap="round" fill="#353b48" fill-rule="evenodd" transform="translate(132.02620392565143, 250.2511595378596)" vector-effect="non-scaling-stroke" shape-rendering="auto"></path>
      </g>
      <g data-name="additionalLines" transform="translate(0, 0)">
          <path d="M 0 92.5 L 38.85 92.5" stroke="#353b48" stroke-width="3.145" stroke-linejoin="round" stroke-linecap="round" fill="none" fill-rule="evenodd" transform="translate(100.82499999999999, 222)" vector-effect="non-scaling-stroke" shape-rendering="auto"></path>
      </g>
      <g data-name="additionalLines" transform="translate(0, 0)">
          <path d="M 0 92.5 L 38.85 92.5" stroke="#353b48" stroke-width="3.145" stroke-linejoin="round" stroke-linecap="round" fill="none" fill-rule="evenodd" transform="translate(100.82499999999999, 222)" vector-effect="non-scaling-stroke" shape-rendering="auto"></path>
      </g>
  </g>
  <g data-name="singleChord" transform="translate(-50, -244.5)">
      <g data-name="singleChordBody" transform="translate(0, 0)">
          <g data-name="noteBody" transform="translate(0, 0)">
              <ellipse rx="12.95" ry="7.4" stroke="#353b48" stroke-width="2.5900000000000003" stroke-linejoin="round" stroke-linecap="round" fill="#353b48" cx="120.24999999999999" cy="314.5" transform="rotate(-25, 120.24999999999999, 314.5)" vector-effect="non-scaling-stroke" shape-rendering="auto"></ellipse>
          </g>
      </g>
      <line data-name="stem" x1="108.47379607434853" y1="318.0536595378596" x2="108.47379607434853" y2="379.6738404621404" stroke="#353b48" stroke-width="3.33" stroke-linejoin="round" stroke-linecap="round" transform="translate(0, 0)" vector-effect="non-scaling-stroke" shape-rendering="auto"></line>
      <g data-name="noteWave" transform="translate(0, 0)">
          <path d="M 18.13 -0.5549999999999999 C 15.90 4.995 27.38 19.795 8.879999999999999 34.595 C 8.879999999999999 34.595 -0.37 41.995 -0.37 49.394999999999996 L -0.37 34.595 C -0.37 34.595 8.879999999999999 33.67 14.855500000000001 27.195 C 15.54 26.27 20.165000000000003 19.795 19.61 14.985000000000001" stroke="#353b48" stroke-width="2.6824999999999997" stroke-linejoin="round" stroke-linecap="round" fill="#353b48" fill-rule="evenodd" transform="translate(108.47379607434853, 330.6488404621404)" vector-effect="non-scaling-stroke" shape-rendering="auto"></path>
      </g>
      <g data-name="additionalLines" transform="translate(0, 0)">
          <path d="M 0 92.5 L 38.85 92.5" stroke="#353b48" stroke-width="3.145" stroke-linejoin="round" stroke-linecap="round" fill="none" fill-rule="evenodd" transform="translate(100.82499999999999, 222)" vector-effect="non-scaling-stroke" shape-rendering="auto"></path>
      </g>
      <g data-name="additionalLines" transform="translate(0, 0)">
          <path d="M 0 92.5 L 38.85 92.5" stroke="#353b48" stroke-width="3.145" stroke-linejoin="round" stroke-linecap="round" fill="none" fill-rule="evenodd" transform="translate(100.82499999999999, 222)" vector-effect="non-scaling-stroke" shape-rendering="auto"></path>
      </g>
  </g>
  <path xmlns="http://www.w3.org/2000/svg" data-name="text" fill="#353b48" d="M1.25 179.07L1.25 179.07Q1.30 177.97 1.87 176.64Q2.45 175.32 3.20 174.57L3.20 174.57Q7.14 176.72 10.14 176.72L10.14 176.72Q11.79 176.72 12.81 176.07Q13.84 175.42 13.84 174.32L13.84 174.32Q13.84 172.57 11.14 171.52L11.14 171.52L8.34 170.47Q2.05 168.18 2.05 163.13L2.05 163.13Q2.05 161.33 2.72 159.91Q3.40 158.49 4.62 157.46Q5.84 156.44 7.54 155.89Q9.24 155.34 11.34 155.34L11.34 155.34Q12.29 155.34 13.46 155.49Q14.64 155.64 15.83 155.91Q17.03 156.19 18.13 156.54Q19.23 156.89 20.03 157.29L20.03 157.29Q20.03 158.54 19.53 159.88Q19.03 161.23 18.18 161.88L18.18 161.88Q14.24 160.13 11.34 160.13L11.34 160.13Q10.04 160.13 9.29 160.76Q8.54 161.38 8.54 162.38L8.54 162.38Q8.54 163.93 11.04 164.83L11.04 164.83L14.09 165.93Q17.38 167.08 18.98 169.08Q20.58 171.07 20.58 173.72L20.58 173.72Q20.58 177.27 17.93 179.39Q15.28 181.51 10.34 181.51L10.34 181.51Q5.49 181.51 1.25 179.07ZM42.61 158.14L42.61 158.14Q46.15 161.68 46.15 168.43L46.15 168.43Q46.15 171.42 45.40 173.85Q44.66 176.27 43.23 177.97Q41.81 179.66 39.71 180.59Q37.61 181.51 34.97 181.51L34.97 181.51Q32.32 181.51 30.24 180.59Q28.17 179.66 26.75 177.97Q25.32 176.27 24.58 173.85Q23.83 171.42 23.83 168.43L23.83 168.43Q23.83 162.38 26.72 158.86Q29.62 155.34 34.97 155.34L34.97 155.34Q39.66 155.34 42.61 158.14ZM34.97 160.23L34.97 160.23Q30.52 160.23 30.52 168.43L30.52 168.43Q30.52 176.57 34.97 176.57L34.97 176.57Q39.46 176.57 39.46 168.43L39.46 168.43Q39.46 160.23 34.97 160.23ZM72.03 164.13L72.03 164.13L72.03 175.02Q72.03 178.22 73.08 179.76L73.08 179.76Q71.48 181.16 69.23 181.16L69.23 181.16Q67.08 181.16 66.28 180.19Q65.48 179.22 65.48 177.12L65.48 177.12L65.48 165.48Q65.48 163.23 64.94 162.33Q64.39 161.43 62.89 161.43L62.89 161.43Q60.24 161.43 57.94 163.83L57.94 163.83L57.94 180.81Q57.19 180.96 56.37 181.01Q55.54 181.06 54.70 181.06L54.70 181.06Q53.85 181.06 53.02 181.01Q52.20 180.96 51.45 180.81L51.45 180.81L51.45 156.09L51.75 155.74L54.25 155.74Q57.04 155.74 57.74 158.74L57.74 158.74Q61.39 155.59 64.98 155.59L64.98 155.59Q68.58 155.59 70.30 157.91Q72.03 160.23 72.03 164.13Z" transform="translate(80, -75)" vector-effect="non-scaling-stroke" shape-rendering="auto"></path>
</svg>
