<svg xmlns="http://www.w3.org/2000/svg" version="1.1" xmlns:xlink="http://www.w3.org/1999/xlink" xmlns:svgjs="http://svgjs.com/svgjs" width="230" height="80"><defs id="SvgjsDefs1001"></defs><svg id="SvgjsSvg1002" width="2" height="0" focusable="false" style="overflow: hidden; top: -100%; left: -100%; position: absolute; opacity: 0"><polyline id="SvgjsPolyline1003" points="10,15 25,10 25,60 55,55 65,70 10,70 10,15"></polyline><path id="SvgjsPath1004" d="M0 0 "></path></svg><polyline id="SvgjsPolyline1006" points="10,15 30,10 45,35 60,10 80,15 55,40 80,65 60,70 45,45 30,70 10,65 35,40 10,15" fill="#dc143c" transform="matrix(0.9961946980917455,-0.08715574274765817,0.08715574274765817,0.9961946980917455,-3.3149911240348757,4.0742204999748)" stroke-linejoin="bevel" stroke-linecap="butt" stroke="#222222" stroke-width="2"></polyline><polyline id="SvgjsPolyline1007" points="120,60 100,30 100,75 85,75 85,20 105,15 120,40 120,60" fill="#dc143c" transform="matrix(0.9961946980917455,-0.08715574274765817,0.08715574274765817,0.9961946980917455,-3.3815839074293272,2.5489950018907805)" stroke-linejoin="bevel" stroke-linecap="butt" stroke="#222222" stroke-width="2"></polyline><polyline id="SvgjsPolyline1008" points="124,33 139,8 159,13 159,68 144,68 144,23 124,53 124,33" fill="#dc143c" transform="matrix(0.9961946980917455,0.08715574274765817,-0.08715574274765817,0.9961946980917455,3.7240610791722304,-5.295021845398452)" stroke-linejoin="bevel" stroke-linecap="butt" stroke="#222222" stroke-width="2"></polyline><polyline id="SvgjsPolyline1009" points="165,25 180,20 180,70 210,65 220,80 165,80 165,25" fill="#dc143c" transform="matrix(0.9961946980917455,-0.08715574274765817,0.08715574274765817,0.9961946980917455,-3.343530888346784,3.420552429367362)" stroke-linejoin="bevel" stroke-linecap="butt" stroke="#222222" stroke-width="2"></polyline></svg>