<svg xmlns="http://www.w3.org/2000/svg" version="1.1" xmlns:xlink="http://www.w3.org/1999/xlink" xmlns:svgjs="http://svgjs.com/svgjs" width="320" height="100" fill="#ff0000"><defs id="SvgjsDefs1001"></defs><svg id="SvgjsSvg1002" width="2" height="0" focusable="false" style="overflow: hidden; top: -100%; left: -100%; position: absolute; opacity: 0"><polyline id="SvgjsPolyline1003" points="0,0"></polyline><path id="SvgjsPath1004" d="M0 0 "></path></svg><polyline id="SvgjsPolyline1006" points="20,20 60,20 20,20 20,80 20,80 300,80 300,80 290,70 290,70 260,70 260,70 260,20 260,20 250,20 250,20 250,70 245,70 240,70 240,70 240,20 240,20 230,20 230,20 210,40 210,40 190,20 190,20 180,20 180,20 180,70 180,70 190,70 190,70 190,30 190,30 210,50 210,50 230,30 230,30 230,70 180,70 160,70 160,70 150,70 150,70 150,30 150,30 170,30 170,30 170,20 170,20 120,20 120,20 120,30 120,30 140,30 140,30 140,70 140,70 110,70 110,70 110,20 110,20 100,20 100,20 100,45 100,45 80,45 80,45 80,70 80,70 70,70 70,70 70,20 70,20 80,20 80,20 80,55 80,55 100,55 100,55 100,70 30,70 30,55 30,55 60,55 60,55 60,45 60,45 30,45 30,45 30,30 30,30 60,30 60,30 60,19" fill="#ffdd59" stroke="#485460" stroke-width="2"></polyline><polyline id="SvgjsPolyline1007" points="181,70 189,70" fill="#ffdd59" stroke="#ffdd59" stroke-width="4"></polyline><polyline id="SvgjsPolyline1008" points="71,70 79,70" fill="#ffdd59" stroke="#ffdd59" stroke-width="4"></polyline><polyline id="SvgjsPolyline1009" points="80,46 80,54" fill="#ffdd59" stroke="#ffdd59" stroke-width="4"></polyline></svg>