<svg xmlns="http://www.w3.org/2000/svg" version="1.1" xmlns:xlink="http://www.w3.org/1999/xlink" xmlns:svgjs="http://svgjs.com/svgjs" width="284" height="62"><defs id="SvgjsDefs1001"></defs><svg id="SvgjsSvg1002" width="2" height="0" focusable="false" style="overflow: hidden; top: -100%; left: -100%; position: absolute; opacity: 0"><polyline id="SvgjsPolyline1003" points="80,46 80,55"></polyline><path id="SvgjsPath1004" d="M0 0 "></path></svg><polyline id="SvgjsPolyline1006" points="1,1 41,1 1,1 1,61 1,61 281,61 281,61 271,51 271,51 241,51 241,51 241,1 241,1 231,1 231,1 231,51 226,51 221,51 221,51 221,1 221,1 211,1 211,1 191,21 191,21 171,1 171,1 161,1 161,1 161,51 161,51 171,51 171,51 171,16 171,16 191,36 191,36 211,16 211,16 211,51 161,51 141,51 141,51 131,51 131,51 131,11 131,11 151,11 151,11 151,1 151,1 101,1 101,1 101,11 101,11 121,11 121,11 121,51 121,51 91,51 91,51 91,1 91,1 81,1 81,1 81,26 81,26 61,26 61,26 61,51 61,51 51,51 51,51 51,1 51,1 61,1 61,1 61,36 61,36 81,36 81,36 81,51 11,51 11,36 11,36 41,36 41,36 41,26 41,26 11,26 11,26 11,11 11,11 41,11 41,11 41,1" fill="#ffdd59" stroke="#485460" stroke-width="1"></polyline><polyline id="SvgjsPolyline1007" points="161.5,50 170.5,50" fill="#ffdd59" stroke="#ffdd59" stroke-width="6"></polyline><polyline id="SvgjsPolyline1008" points="51.5,50 60.5,50" fill="#ffdd59" stroke="#ffdd59" stroke-width="6"></polyline><polyline id="SvgjsPolyline1009" points="61,26.5 61,35.5" fill="#ffdd59" stroke="#ffdd59" stroke-width="6"></polyline></svg>