<svg xmlns="http://www.w3.org/2000/svg" version="1.1" xmlns:xlink="http://www.w3.org/1999/xlink" xmlns:svgjs="http://svgjs.com/svgjs" width="222" height="236"><defs id="SvgjsDefs1001"></defs><svg id="SvgjsSvg1002" width="2" height="0" focusable="false" style="overflow: hidden; top: -100%; left: -100%; position: absolute; opacity: 0"><polyline id="SvgjsPolyline1003" points="0,0"></polyline><path id="SvgjsPath1004" d="M100 100L125 0L130 0L105 100L100 100M200 100L175 0L170 0L195 100L200 100 "></path></svg><path id="SvgjsPath1006" d="M1 126L61 46L131 6L146 1L181 26L201 46L221 126L1 126 " fill="#bdc3c7" stroke-linejoin="miter" stroke-linecap="round"></path><path id="SvgjsPath1007" d="M80 125L105.5 125M154.5 125L180 125M110 125L150 125M80 125L80 45C100 25 160 25 180 45L180 125M95 125L95 65C100 55 160 55 165 65L165 125 " fill="#6c7a89" stroke="#454545" stroke-width="1.5" fill-rule="evenodd" stroke-linejoin="miter" stroke-linecap="round"></path><path id="SvgjsPath1008" d="M95.5 124.5L95.5 64.5C100.5 54.5 160.5 54.5 165.5 64.5L165.5 124.5 " fill="#2b3036" stroke="#2b3036" stroke-width="1.5" fill-rule="evenodd" stroke-linejoin="miter" stroke-linecap="round"></path><path id="SvgjsPath1009" d="M90 206L169.5 206L167 196L93 196L90 206M98 176L162 176L160 166L100 166L98 176M105 146L155 146L152 136L108 136L105 146 " fill="#616d7b" fill-rule="evenodd" stroke="#616d7b" stroke-width="1.5" stroke-linejoin="miter" stroke-linecap="round"></path><path id="SvgjsPath1010" d="M80 225L105 125L110 125L85 225L80 225M180 225L155 125L150 125L175 225L180 225 " fill="#404952" stroke="#404952" stroke-width="1.5" fill-rule="evenodd" stroke-linejoin="miter" stroke-linecap="round"></path><text id="SvgjsText1011" font-family="Brush Script MT" x="131.5" y="51.5" font-size="40" text-anchor="middle" size="40" family="Brush Script MT" anchor="middle" svgjs:data="{&quot;leading&quot;:&quot;1.5em&quot;}"><tspan id="SvgjsTspan1012" fill="white">mea</tspan></text><text id="SvgjsText1013" font-family="Brush Script MT" x="130" y="101.5" font-size="30" text-anchor="middle" size="30" family="Brush Script MT" anchor="middle" svgjs:data="{&quot;leading&quot;:&quot;1.5em&quot;}"><tspan id="SvgjsTspan1014" fill="#eb4d4b">{java}</tspan></text></svg>