<svg xmlns="http://www.w3.org/2000/svg" version="1.1" xmlns:xlink="http://www.w3.org/1999/xlink" xmlns:svgjs="http://svgjs.com/svgjs" width="222" height="236"><defs id="SvgjsDefs1001"></defs><svg id="SvgjsSvg1002" width="2" height="0" focusable="false" style="overflow: hidden; top: -100%; left: -100%; position: absolute; opacity: 0"><polyline id="SvgjsPolyline1003" points="0,0"></polyline><path id="SvgjsPath1004" d="M100 100L125 0L130 0L105 100L100 100M200 100L175 0L170 0L195 100L200 100 "></path></svg><path id="SvgjsPath1006" d="M1 126L61 46L131 6L146 1L181 26L201 46L221 126L1 126 " fill="#bdc3c7" stroke-linejoin="miter" stroke-linecap="round"></path><path id="SvgjsPath1007" d="M80 125L105.5 125M154.5 125L180 125M110 125L150 125M80 125L80 45C100 25 160 25 180 45L180 125M95 125L95 65C100 55 160 55 165 65L165 125 " fill="#6c7a89" stroke="#454545" stroke-width="1.5" fill-rule="evenodd" stroke-linejoin="miter" stroke-linecap="round"></path><path id="SvgjsPath1008" d="M95.5 124.5L95.5 64.5C100.5 54.5 160.5 54.5 165.5 64.5L165.5 124.5 " fill="#2b3036" stroke="#2b3036" stroke-width="1.5" fill-rule="evenodd" stroke-linejoin="miter" stroke-linecap="round"></path><path id="SvgjsPath1009" d="M90 206L169.5 206L167 196L93 196L90 206M98 176L162 176L160 166L100 166L98 176M105 146L155 146L152 136L108 136L105 146 " fill="#616d7b" fill-rule="evenodd" stroke="#616d7b" stroke-width="1.5" stroke-linejoin="miter" stroke-linecap="round"></path><path id="SvgjsPath1010" d="M80 225.2L105 125.2L110 125.2L85 225.2L80 225.2M180 225.2L155 125.2L150 125.2L175 225.2L180 225.2 " fill="#404952" stroke="#404952" stroke-width="1.5" fill-rule="evenodd" stroke-linejoin="miter" stroke-linecap="round"></path><path id="SvgjsPath1011" d="M116.74 48.02L116.74 48.02Q119.43 45.64 121.37 43.87Q123.30 42.11 124.40 41.09Q125.51 40.07 126.35 39.37Q127.19 38.67 127.42 38.67L127.42 38.67Q127.87 38.65 128.28 39.60Q128.69 40.54 128.69 41.11L128.69 41.11Q128.69 41.48 127.45 42.86Q126.21 44.23 125.60 45.05Q124.98 45.88 124.98 46.77L124.98 46.77Q124.98 47.30 125.33 47.62Q125.68 47.95 126.17 47.95L126.17 47.95Q126.74 47.95 127.53 47.36Q128.32 46.77 130.02 45.27L130.02 45.27L130.02 46.66Q128.32 48.26 126.93 49.42Q125.55 50.58 124.52 51.16Q123.50 51.73 122.81 51.73L122.81 51.73Q122.21 51.73 121.80 51.28Q121.39 50.82 121.39 50.13L121.39 50.13Q121.39 49.47 121.62 48.79Q121.86 48.10 122.34 47.16Q122.83 46.23 123.63 44.91Q124.43 43.59 125.10 42.50L125.10 42.50Q123.11 44.12 121.56 45.62Q120.02 47.13 119.04 48.25Q118.07 49.37 117.50 50.02L117.50 50.02Q116.41 51.23 115.47 51.23L115.47 51.23Q114.45 51.23 114.45 49.78L114.45 49.78Q114.45 49.20 115.21 47.68Q115.98 46.17 117.38 43.82L117.38 43.82Q117.50 43.67 117.50 43.34L117.50 43.34Q117.50 42.95 117.11 42.95L117.11 42.95Q116.68 42.95 115.87 43.76Q115.06 44.57 112.73 47.14L112.73 47.14Q112.09 47.87 111.28 49.03Q110.47 50.19 110.12 50.58Q109.77 50.97 109.41 50.97L109.41 50.97Q108.71 50.97 108.11 49.72Q107.50 48.47 107.50 46.81L107.50 46.81Q107.50 45.60 107.90 44.72Q108.30 43.84 109.14 42.54L109.14 42.54Q110.45 40.64 111.28 39.83Q112.11 39.02 113.03 39.02L113.03 39.02Q113.59 39.02 113.98 39.24Q114.38 39.47 114.38 39.86L114.38 39.86Q114.38 40.27 113.66 41.21Q112.95 42.14 111.86 43.14L111.86 43.14Q111.27 43.71 110.74 44.54Q110.21 45.37 110.21 45.74L110.21 45.74Q110.21 46.27 110.63 46.27L110.63 46.27Q110.96 46.27 112.30 44.90Q113.65 43.53 115.26 41.92Q116.88 40.31 118.25 39.24Q119.63 38.18 120.59 38.18L120.59 38.18Q121.17 38.18 121.55 38.62Q121.93 39.06 121.93 39.70L121.93 39.70Q121.93 40.13 121.35 41.26Q120.76 42.38 119.64 44.03Q118.52 45.68 116.74 48.02ZM133.01 46.05L133.01 46.05L133.01 46.54Q133.01 47.69 133.57 48.34Q134.14 48.98 135.06 48.98L135.06 48.98Q136.02 48.98 137.04 48.53Q138.07 48.08 139.08 47.34Q140.10 46.60 141.56 45.35L141.56 45.35L141.56 46.54Q139.36 49.20 137.42 50.61Q135.49 52.03 133.50 52.03L133.50 52.03Q131.76 52.03 130.74 50.68Q129.73 49.33 129.73 46.99L129.73 46.99Q129.73 44.94 130.68 43.27Q131.64 41.60 133.81 39.74L133.81 39.74Q135.29 38.47 136.76 37.83Q138.22 37.18 139.38 37.18L139.38 37.18Q140.29 37.18 140.83 37.60Q141.37 38.02 141.37 38.86L141.37 38.86Q141.37 40.09 140.45 41.31Q139.53 42.54 137.65 43.74Q135.76 44.94 133.01 46.05ZM133.20 44.78L133.20 44.78Q134.96 44.10 136.21 43.08Q137.46 42.07 138.06 41.14Q138.65 40.21 138.65 39.78L138.65 39.78Q138.65 39.33 138.24 39.33L138.24 39.33Q137.89 39.33 137.10 39.78Q136.31 40.23 135.50 40.95Q134.69 41.68 134.04 42.65Q133.40 43.63 133.20 44.78ZM143.85 41.85L143.85 41.85Q146.82 39.16 149.61 37.85Q152.40 36.54 153.93 36.54L153.93 36.54Q154.34 36.54 154.69 36.88Q155.04 37.22 155.24 37.67Q155.45 38.12 155.45 38.34L155.45 38.34Q155.45 38.69 155.18 38.85Q154.90 39.02 154.22 39.25L154.22 39.25Q154.36 39.57 154.57 40.05Q154.79 40.54 154.90 40.85Q155.02 41.15 155.02 41.38L155.02 41.38Q155.02 41.85 154.07 43.13Q153.13 44.41 152.74 45.02Q152.36 45.62 152.36 46.50L152.36 46.50Q152.36 47.95 153.69 47.95L153.69 47.95Q155.06 47.95 157.97 45.39L157.97 45.39L157.97 46.58Q153.03 52.07 150.90 52.07L150.90 52.07Q150.14 52.07 149.81 51.57Q149.49 51.07 149.49 50.09L149.49 50.09Q149.49 48.55 150.61 45.62L150.61 45.62Q147.75 48.79 146.37 50.12Q144.98 51.46 144.08 51.46L144.08 51.46Q143.65 51.46 143.01 50.72Q142.36 49.98 141.87 48.79Q141.37 47.61 141.37 46.34L141.37 46.34Q141.37 45.43 141.54 44.81Q141.72 44.20 142.23 43.55Q142.73 42.91 143.85 41.85ZM153.20 39.70L153.20 39.70Q148.13 42.03 145.97 43.65Q143.81 45.27 143.81 46.99L143.81 46.99Q143.81 47.61 144.02 48.01Q144.24 48.41 144.61 48.41L144.61 48.41Q144.82 48.41 145.37 48.14L145.37 48.14Q147.42 46.93 149.12 44.99Q150.82 43.04 153.20 39.70Z" fill="white"></path><path id="SvgjsPath1012" d="M107.17 106.59L107.17 108.89L106.35 108.89Q105.39 108.89 104.93 108.85Q104.48 108.81 103.92 108.54L103.92 108.54Q103.18 108.21 102.69 107.54Q102.19 106.87 101.97 105.87Q101.74 104.87 101.74 103.56L101.74 103.56Q101.74 100.51 101.63 99.17Q101.52 97.82 100.87 96.96Q100.22 96.09 98.68 96.03L98.68 96.03L98.68 93.63Q100.22 93.57 100.87 92.70Q101.52 91.83 101.63 90.47Q101.74 89.12 101.74 86.07L101.74 86.07Q101.74 84.77 101.97 83.77Q102.19 82.78 102.68 82.12Q103.16 81.47 103.92 81.12L103.92 81.12Q104.32 80.93 104.72 80.84Q105.12 80.75 105.49 80.74Q105.86 80.72 106.35 80.72L106.35 80.72L107.17 80.72L107.17 83.04L106.72 83.04Q105.67 83.04 105.15 83.27Q104.63 83.49 104.41 84.12Q104.20 84.75 104.20 86.07L104.20 86.07L104.20 88.20Q104.20 90.07 103.94 91.33Q103.69 92.59 103.03 93.45Q102.37 94.30 101.11 94.83L101.11 94.83Q102.30 95.39 102.96 96.16Q103.63 96.94 103.92 98.19Q104.20 99.43 104.20 101.42L104.20 101.42L104.20 103.59Q104.20 104.91 104.41 105.53Q104.63 106.15 105.15 106.37Q105.68 106.59 106.72 106.59L106.72 106.59L107.17 106.59ZM118.51 85.68L118.51 85.68Q118.51 86.12 118.18 86.91L118.18 86.91Q117.81 87.98 117.52 88.33Q117.24 88.68 116.65 88.68L116.65 88.68Q115.39 88.68 115.39 87.84L115.39 87.84Q115.39 87.18 116.17 85.95L116.17 85.95Q116.58 85.29 116.83 85.14Q117.08 84.99 117.63 84.99L117.63 84.99Q118.51 84.99 118.51 85.68ZM109.12 93.26L109.12 93.26L109.53 92.11L112.24 90.88Q114.66 89.73 115.74 89.73L115.74 89.73Q116.59 89.73 116.59 90.51L116.59 90.51Q116.59 90.79 116.37 91.41Q116.14 92.03 115.60 93.19Q115.07 94.35 114.37 95.82Q113.66 97.29 112.90 98.84L112.90 98.84Q114.00 98.10 114.83 97.46Q115.66 96.82 116.77 95.86L116.77 95.86L116.80 96.90Q113.99 99.33 111.58 101.73L111.58 101.73Q110.13 104.56 109.02 105.99Q107.91 107.43 107.35 107.43L107.35 107.43Q106.96 107.43 106.96 106.65L106.96 106.65Q106.96 105.70 107.38 104.74Q107.80 103.78 108.68 102.72Q109.56 101.66 110.76 100.56L110.76 100.56Q112.62 96.90 113.39 95.23Q114.16 93.57 114.16 93.06L114.16 93.06Q114.16 92.74 113.85 92.74L113.85 92.74Q113.69 92.74 111.67 93.68Q109.65 94.63 109.15 94.63L109.15 94.63Q108.84 94.63 108.84 94.29L108.84 94.29Q108.84 94.07 109.12 93.26ZM118.38 93.26L118.38 93.26Q120.61 91.24 122.70 90.26Q124.80 89.28 125.94 89.28L125.94 89.28Q126.25 89.28 126.51 89.54Q126.77 89.79 126.93 90.13Q127.08 90.47 127.08 90.63L127.08 90.63Q127.08 90.89 126.88 91.02Q126.67 91.14 126.16 91.32L126.16 91.32Q126.26 91.55 126.42 91.92Q126.58 92.28 126.67 92.51Q126.76 92.74 126.76 92.91L126.76 92.91Q126.76 93.26 126.05 94.22Q125.34 95.18 125.05 95.64Q124.77 96.09 124.77 96.75L124.77 96.75Q124.77 97.83 125.76 97.83L125.76 97.83Q126.79 97.83 128.97 95.92L128.97 95.92L128.97 96.81Q125.27 100.92 123.67 100.92L123.67 100.92Q123.10 100.92 122.86 100.55Q122.61 100.18 122.61 99.45L122.61 99.45Q122.61 98.29 123.45 96.09L123.45 96.09Q121.31 98.46 120.27 99.47Q119.23 100.47 118.56 100.47L118.56 100.47Q118.23 100.47 117.75 99.91Q117.27 99.36 116.89 98.47Q116.52 97.58 116.52 96.63L116.52 96.63Q116.52 95.94 116.65 95.48Q116.78 95.02 117.17 94.54Q117.55 94.05 118.38 93.26ZM125.40 91.65L125.40 91.65Q121.59 93.40 119.97 94.61Q118.35 95.83 118.35 97.12L118.35 97.12Q118.35 97.58 118.51 97.89Q118.67 98.19 118.95 98.19L118.95 98.19Q119.11 98.19 119.52 97.98L119.52 97.98Q121.06 97.07 122.34 95.61Q123.61 94.16 125.40 91.65ZM130.76 95.92L130.76 95.92L130.50 97.15Q130.44 97.38 130.44 97.67L130.44 97.67Q130.44 98.46 131.10 98.46L131.10 98.46Q131.73 98.46 134.16 96.00L134.16 96.00Q134.17 95.05 134.87 93.81Q135.56 92.56 136.41 91.62Q137.25 90.69 137.66 90.69L137.66 90.69Q138.30 90.69 138.30 91.54L138.30 91.54Q138.30 92.05 138.05 92.79Q137.80 93.53 137.32 94.38Q136.84 95.24 136.13 96.15L136.13 96.15Q136.50 96.81 136.88 96.81L136.88 96.81Q137.20 96.81 137.59 96.58Q137.98 96.35 138.57 95.89L138.57 95.89L138.57 96.87Q137.75 97.51 137.27 97.75Q136.79 97.98 136.05 97.98L136.05 97.98Q135.75 97.98 134.99 97.58L134.99 97.58Q133.50 99.17 132.56 99.95Q131.62 100.73 131.04 100.73L131.04 100.73Q130.03 100.73 129.32 99.53Q128.61 98.32 128.61 96.87L128.61 96.87Q128.61 94.92 130.80 92.19L130.80 92.19Q131.46 91.37 131.86 91.07Q132.27 90.77 132.78 90.77L132.78 90.77Q133.22 90.77 133.62 90.93Q134.01 91.10 134.01 91.32L134.01 91.32Q134.01 92.05 133.03 93.46Q132.05 94.88 130.76 95.92ZM140.25 93.26L140.25 93.26Q142.48 91.24 144.57 90.26Q146.67 89.28 147.81 89.28L147.81 89.28Q148.12 89.28 148.38 89.54Q148.64 89.79 148.80 90.13Q148.95 90.47 148.95 90.63L148.95 90.63Q148.95 90.89 148.75 91.02Q148.54 91.14 148.03 91.32L148.03 91.32Q148.13 91.55 148.29 91.92Q148.45 92.28 148.54 92.51Q148.63 92.74 148.63 92.91L148.63 92.91Q148.63 93.26 147.92 94.22Q147.21 95.18 146.92 95.64Q146.64 96.09 146.64 96.75L146.64 96.75Q146.64 97.83 147.63 97.83L147.63 97.83Q148.66 97.83 150.84 95.92L150.84 95.92L150.84 96.81Q147.14 100.92 145.54 100.92L145.54 100.92Q144.97 100.92 144.73 100.55Q144.48 100.18 144.48 99.45L144.48 99.45Q144.48 98.29 145.32 96.09L145.32 96.09Q143.18 98.46 142.14 99.47Q141.10 100.47 140.43 100.47L140.43 100.47Q140.10 100.47 139.62 99.91Q139.14 99.36 138.76 98.47Q138.39 97.58 138.39 96.63L138.39 96.63Q138.39 95.94 138.52 95.48Q138.65 95.02 139.04 94.54Q139.42 94.05 140.25 93.26ZM147.27 91.65L147.27 91.65Q143.46 93.40 141.84 94.61Q140.22 95.83 140.22 97.12L140.22 97.12Q140.22 97.58 140.38 97.89Q140.54 98.19 140.82 98.19L140.82 98.19Q140.98 98.19 141.39 97.98L141.39 97.98Q142.93 97.07 144.21 95.61Q145.48 94.16 147.27 91.65ZM152.94 83.04L152.94 80.72L153.74 80.72Q154.55 80.72 155.12 80.80Q155.69 80.87 156.17 81.12L156.17 81.12Q156.95 81.46 157.43 82.12Q157.92 82.78 158.14 83.77Q158.37 84.77 158.37 86.07L158.37 86.07Q158.37 89.09 158.48 90.46Q158.59 91.83 159.24 92.71Q159.88 93.59 161.43 93.63L161.43 93.63L161.43 96.03Q159.88 96.08 159.24 96.96Q158.59 97.83 158.48 99.20Q158.37 100.56 158.37 103.56L158.37 103.56Q158.37 104.87 158.14 105.87Q157.92 106.87 157.42 107.54Q156.92 108.21 156.17 108.54L156.17 108.54Q155.65 108.79 155.10 108.84Q154.55 108.89 153.74 108.89L153.74 108.89L152.94 108.89L152.94 106.59L153.39 106.59Q154.45 106.59 154.97 106.37Q155.49 106.15 155.70 105.52Q155.91 104.89 155.91 103.59L155.91 103.59L155.91 101.42Q155.91 98.58 156.54 97.08Q157.17 95.58 158.97 94.83L158.97 94.83Q158.09 94.41 157.51 93.89Q156.94 93.37 156.58 92.61Q156.22 91.86 156.06 90.80Q155.91 89.73 155.91 88.20L155.91 88.20L155.91 86.07Q155.91 84.77 155.70 84.14Q155.49 83.51 154.97 83.27Q154.45 83.04 153.39 83.04L153.39 83.04L152.94 83.04Z" fill="#eb4d4b"></path></svg>